<?xml version="1.0"?>
<svg width="115" height="115" xmlns="http://www.w3.org/2000/svg" xmlns:svg="http://www.w3.org/2000/svg" xmlns:xlink="http://www.w3.org/1999/xlink" version="1.0">
 <metadata id="metadata371">image/svg+xml</metadata>
 <defs id="defs4">
  <linearGradient id="linearGradient4671">
   <stop id="stop4673" offset="0" stop-color="#ffd43b"/>
   <stop id="stop4675" offset="1" stop-color="#ffe873"/>
  </linearGradient>
  <linearGradient id="linearGradient4689">
   <stop id="stop4691" offset="0" stop-color="#5a9fd4"/>
   <stop id="stop4693" offset="1" stop-color="#306998"/>
  </linearGradient>
  <linearGradient id="linearGradient1475" x1="0.5" x2="0.23" xlink:href="#linearGradient4671" y1="0.82" y2="0.45"/>
  <linearGradient id="linearGradient1478" x1="0" x2="0.75" xlink:href="#linearGradient4689" y1="0" y2="0.64"/>
 </defs>
 <g class="layer">
  <title>Layer 1</title>
  <path d="m54.92,0c-4.58,0.02 -8.96,0.41 -12.81,1.09c-11.35,2.01 -13.41,6.2 -13.41,13.94l0,10.22l26.81,0l0,3.41l-26.81,0l-10.06,0c-7.79,0 -14.62,4.68 -16.75,13.59c-2.46,10.21 -2.57,16.59 0,27.25c1.9,7.94 6.46,13.59 14.25,13.59l9.22,0l0,-12.25c0,-8.85 7.65,-16.65 16.75,-16.65l26.78,0c7.45,0 13.4,-6.14 13.4,-13.63l0,-25.53c0,-7.26 -6.13,-12.72 -13.4,-13.94c-4.61,-0.76 -9.39,-1.11 -13.97,-1.09zm-14.5,8.22c2.77,0 5.03,2.3 5.03,5.12c0,2.82 -2.26,5.1 -5.03,5.1c-2.78,0 -5.03,-2.28 -5.03,-5.1c0,-2.82 2.25,-5.12 5.03,-5.12z" fill="url(#linearGradient1478)" id="path1948"/>
  <path d="m85.64,28.66l0,11.9c0,9.23 -7.83,17 -16.75,17l-26.78,0c-7.34,0 -13.41,6.28 -13.41,13.63l0,25.53c0,7.27 6.32,11.54 13.41,13.62c8.48,2.5 16.62,2.95 26.78,0c6.75,-1.95 13.4,-5.88 13.4,-13.62l0,-10.22l-26.78,0l0,-3.41l26.78,0l13.41,0c7.79,0 10.7,-5.43 13.41,-13.59c2.8,-8.4 2.68,-16.47 0,-27.25c-1.93,-7.76 -5.61,-13.59 -13.41,-13.59l-10.06,0zm-15.06,64.65c2.77,0 5.03,2.28 5.03,5.1c0,2.82 -2.26,5.12 -5.03,5.12c-2.77,0 -5.04,-2.3 -5.04,-5.12c0,-2.82 2.27,-5.1 5.04,-5.1z" fill="url(#linearGradient1475)" id="path1950"/>
 </g>
</svg>